<svg class="svg-icon" style="width: 1em; height: 1em;vertical-align: middle;fill: #94a3b8;overflow: hidden;" viewBox="0 0 1024 1024" version="1.1" xmlns="http://www.w3.org/2000/svg"><path d="M749.248 704H864a32 32 0 1 0 0-64H672a32 32 0 0 0-32 32v192a32 32 0 1 0 64 0v-114.752l137.36 137.36a32 32 0 1 0 45.232-45.264L749.248 704zM320 749.248V864a32 32 0 1 0 64 0V672a32 32 0 0 0-32-32H160a32 32 0 1 0 0 64h114.752l-137.36 137.36a32 32 0 1 0 45.264 45.232L320 749.248zM749.248 320H864a32 32 0 1 1 0 64H672a32 32 0 0 1-32-32V160a32 32 0 1 1 64 0v114.752l137.36-137.36a32 32 0 1 1 45.232 45.264L749.248 320zM320 274.752V160a32 32 0 1 1 64 0v192a32 32 0 0 1-32 32H160a32 32 0 1 1 0-64h114.752l-137.36-137.36a32 32 0 1 1 45.264-45.232L320 274.752z"  /></svg>