<svg class="svg-icon" style="width: 1em; height: 1em;vertical-align: middle;fill: #94a3b8;overflow: hidden;" viewBox="0 0 1024 1024" version="1.1" xmlns="http://www.w3.org/2000/svg"><path d="M237.248 192H352a32 32 0 1 0 0-64H160a32 32 0 0 0-32 32v192a32 32 0 1 0 64 0v-114.752l137.36 137.36a32 32 0 1 0 45.232-45.264L237.248 192zM832 237.248V352a32 32 0 1 0 64 0V160a32 32 0 0 0-32-32H672a32 32 0 1 0 0 64h114.752l-137.36 137.36a32 32 0 1 0 45.264 45.232L832 237.248zM237.248 832H352a32 32 0 1 1 0 64H160a32 32 0 0 1-32-32V672a32 32 0 1 1 64 0v114.752l137.36-137.36a32 32 0 1 1 45.232 45.264L237.248 832zM832 786.752V672a32 32 0 1 1 64 0v192a32 32 0 0 1-32 32H672a32 32 0 1 1 0-64h114.752l-137.36-137.36a32 32 0 1 1 45.264-45.232L832 786.752z"  /></svg>